<?xml version="1.0" encoding="utf-8"?>
<!-- Generator: Adobe Illustrator 27.3.1, SVG Export Plug-In . SVG Version: 6.00 Build 0)  -->
<svg version="1.1" id="Layer_1" xmlns="http://www.w3.org/2000/svg" xmlns:xlink="http://www.w3.org/1999/xlink" x="0px" y="0px"
	 viewBox="0 0 1268 523" style="enable-background:new 0 0 1268 523;" xml:space="preserve">
<style type="text/css">
	.st0{fill:#007DDB;}
	.st1{fill:#F97115;}
	.st2{stroke:#FFFFFF;stroke-width:2;stroke-miterlimit:10;}
	.st3{fill:none;stroke:#FFFFFF;stroke-width:2;stroke-miterlimit:10;}
	.st4{fill:#FFFFFF;}
</style>
<path class="st0" d="M445.53,236.53h116.44v43.59h-71.23v37.19h54.58v42.22h-54.58V440h-45.21V236.53z"/>
<path class="st0" d="M634.06,440v-18.44h-0.61c-5.39,7.93-10.6,13.77-15.62,17.53c-5.03,3.76-10.95,5.64-17.76,5.64
	c-13.31,0-23.93-6.81-31.85-20.42c-7.93-13.62-11.89-32.11-11.89-55.48c0-22.46,4.02-40.34,12.04-53.65
	c8.03-13.31,18.59-19.97,31.7-19.97c7.01,0,12.95,1.75,17.83,5.26c4.88,3.5,9.96,9.12,15.24,16.84h0.61v-17.53h44.35V440H634.06z
	 M634.06,369.13c0-23.27-5.69-34.9-17.07-34.9c-11.49,0-17.22,11.64-17.22,34.9c0,24.18,5.94,36.27,17.83,36.27
	C628.58,405.4,634.06,393.31,634.06,369.13z"/>
<path class="st0" d="M754.32,299.78v23.47h0.61c10.56-18.29,21.69-27.43,33.38-27.43c1.73,0,4.11,0.3,7.16,0.91v43.44
	c-5.39-0.91-10.36-1.37-14.93-1.37c-16.26,0-24.39,10.52-24.39,31.55V440h-44.2V299.78H754.32z"/>
<path class="st0" d="M824.58,394.73c15.14,8.94,26.06,13.41,32.77,13.41c3.66,0,6.71-0.94,9.14-2.82c2.44-1.88,3.66-4.14,3.66-6.78
	c0-2.84-1.02-4.93-3.05-6.25c-2.03-1.32-9.65-4.88-22.86-10.67c-10.57-4.67-18.19-10.19-22.86-16.54s-7.01-14.25-7.01-23.7
	c0-13.51,4.65-24.64,13.94-33.38c9.3-8.74,21.16-13.11,35.59-13.11c14.02,0,31.19,5.59,51.52,16.77l-17.07,31.55
	c-13.21-8.13-24.03-12.19-32.47-12.19c-7.32,0-10.97,2.95-10.97,8.84c0,2.85,1.35,5.31,4.04,7.39c2.69,2.09,7.59,4.4,14.7,6.94
	c13.31,4.67,22.99,10.26,29.04,16.77c6.04,6.5,9.07,14.73,9.07,24.69c0,14.23-4.78,25.91-14.33,35.06
	c-9.55,9.14-21.74,13.72-36.58,13.72c-16.05,0-33.22-5.64-51.51-16.92L824.58,394.73z"/>
<path class="st0" d="M1004.73,397.17h37.34c-7.11,31.5-24.89,47.25-53.34,47.25c-17.78,0-31.85-6.76-42.22-20.27
	c-10.36-13.51-15.55-32.16-15.55-55.94c0-22.15,5.19-39.91,15.55-53.27c10.36-13.36,24.13-20.04,41.3-20.04
	c10.36,0,20.32,3.23,29.87,9.68c9.55,6.45,16.51,15.01,20.88,25.68c4.37,10.67,6.8,27.49,7.32,50.45h-73.92
	c0.61,20.83,6.4,31.24,17.38,31.24c3.76,0,7.11-1.37,10.06-4.12S1004.12,401.54,1004.73,397.17z M972.58,356.63h32.16
	c-0.3-9.85-1.67-17.15-4.11-21.87c-2.44-4.72-6.3-7.09-11.58-7.09c-5.89,0-10.11,2.29-12.65,6.86
	C973.84,339.1,972.58,346.47,972.58,356.63z"/>
<path class="st1" d="M1078.35,236.53h46.18V440h-46.18V236.53z"/>
<rect x="445.43" y="184.48" class="st1" width="811.57" height="41.62"/>
<rect x="1161.28" y="226.1" class="st1" width="45.78" height="216.42"/>
<g>
</g>
<path class="st0" d="M371.01,377.62H87.65c-1.53,0-2.78-1.24-2.78-2.78v-178.3c0-1.53,1.24-2.78,2.78-2.78h283.36
	c1.53,0,2.78,1.24,2.78,2.78v178.3C373.79,376.37,372.55,377.62,371.01,377.62z"/>
<rect x="98.01" y="210.18" width="262.65" height="154.31"/>
<g>
	<circle class="st2" cx="334.39" cy="220.03" r="85.36"/>
	<g>
		<g>
			<path class="st3" d="M335.2,135.47c46.7,0,84.56,37.86,84.56,84.56s-37.86,84.56-84.56,84.56"/>
			<path class="st3" d="M334.93,135.47c31.13,0,56.37,37.86,56.37,84.56s-25.24,84.56-56.37,84.56"/>
			<path class="st3" d="M334.66,135.47c15.57,0,28.19,37.86,28.19,84.56s-12.62,84.56-28.19,84.56"/>
			<path class="st3" d="M334.39,135.47c0,0,0,37.86,0,84.56s0,84.56,0,84.56"/>
			<path class="st3" d="M334.12,135.47c-15.57,0-28.19,37.86-28.19,84.56s12.62,84.56,28.19,84.56"/>
			<path class="st3" d="M333.85,135.47c-31.13,0-56.37,37.86-56.37,84.56s25.24,84.56,56.37,84.56"/>
			<path class="st3" d="M333.59,135.47c-46.7,0-84.56,37.86-84.56,84.56s37.86,84.56,84.56,84.56"/>
		</g>
		<g>
			<g>
				<path class="st3" d="M273.51,160.52L273.51,160.52c7.71-1.76,15.49-3.17,23.31-4.24c6.5-0.9,13.02-1.55,19.57-1.96h0.01
					c5.99-0.39,12-0.58,18-0.57c6.02,0.01,12.02,0.22,18.02,0.63c6.57,0.43,13.13,1.12,19.65,2.04c7.87,1.1,15.68,2.55,23.43,4.35
					h0.01"/>
				<path class="st3" d="M253.31,193.41c9.24-1.51,18.55-2.75,27.9-3.72c8.92-0.93,17.89-1.63,26.87-2.08
					c8.75-0.45,17.52-0.67,26.3-0.66c8.78,0.01,17.55,0.24,26.31,0.7c8.99,0.48,17.96,1.18,26.89,2.13
					c9.37,0.99,18.67,2.25,27.93,3.76"/>
				<path class="st3" d="M249.05,221.18c9.48,0,18.96,0,28.44,0c9.49,0,18.97,0,28.46,0c9.48,0,18.96,0,28.44,0
					c9.48,0,18.96,0,28.44,0c9.49,0,18.97,0,28.46,0c9.48,0,18.96,0,28.44,0"/>
				<path class="st3" d="M254.15,249.08c9.18,1.47,18.42,2.68,27.7,3.64c8.83,0.91,17.68,1.59,26.57,2.04
					c8.64,0.43,17.31,0.64,25.97,0.64c8.66-0.01,17.33-0.23,25.98-0.68c8.88-0.45,17.75-1.14,26.58-2.08
					c9.29-0.97,18.54-2.2,27.73-3.7"/>
				<path class="st3" d="M276.62,282.52c7.36,1.58,14.79,2.86,22.25,3.83c6.16,0.8,12.34,1.39,18.53,1.75h0.01
					c5.65,0.35,11.32,0.52,16.98,0.52c5.68-0.01,11.35-0.19,17.01-0.56c6.22-0.39,12.43-1,18.6-1.82c7.51-0.99,14.99-2.3,22.4-3.94"
					/>
			</g>
		</g>
	</g>
</g>
<g>
	<path class="st4" d="M112.96,265.99l8.03,6.57c0,0,49.21-49.25,100.12,0l8.03-6.57C229.14,265.99,173.87,206.89,112.96,265.99z"/>
	<path class="st4" d="M130.84,283.72l5.45,5.25c0,0,33.38-39.4,67.9,0l5.45-5.25C209.63,283.72,172.15,236.44,130.84,283.72z"/>
	<path class="st4" d="M147.25,298.82l6.57,6.57c0,0,17.21-16.42,34.87,0l5.35-7.3C194.05,298.09,173.52,272.56,147.25,298.82z"/>
	<circle class="st4" cx="170.24" cy="325.09" r="9.85"/>
</g>
<path class="st0" d="M84.59,384.72l-50.25,50.05c-4.36,4.34-1.29,11.79,4.87,11.79h380.97c7.83,0,11.58-9.62,5.81-14.92
	l-51.08-46.92H84.59z"/>
<polygon points="173.52,430.15 182.13,412.46 277.18,412.46 287.5,430.15 "/>
</svg>
